<?xml version="1.0" encoding="UTF-8" standalone="no"?>
<!DOCTYPE svg PUBLIC "-//W3C//DTD SVG 1.1//EN" "http://www.w3.org/Graphics/SVG/1.1/DTD/svg11.dtd">
<svg width="100%" height="100%" viewBox="0 0 500 500" version="1.1" xmlns="http://www.w3.org/2000/svg" xmlns:xlink="http://www.w3.org/1999/xlink" xml:space="preserve" xmlns:serif="http://www.serif.com/" style="fill-rule:evenodd;clip-rule:evenodd;stroke-linejoin:round;stroke-miterlimit:2;">
    <g id="watermark_1_">
    </g>
    <g transform="matrix(1.06458,0,0,1.06458,-16.1457,-16.1457)">
        <path d="M122.545,78.006C174.133,116.867 229.63,195.652 250,237.931L250,349.601C250,347.224 249.086,349.91 247.117,355.697C236.486,387.028 194.959,509.309 100.002,411.553C50.003,360.084 73.15,308.615 164.162,293.076C112.096,301.964 53.56,287.275 37.501,229.689C32.875,213.125 25,111.088 25,97.306C25,28.274 85.321,49.972 122.545,78.006ZM377.455,78.006C325.867,116.867 270.37,195.652 250,237.931L250,349.601C250,347.224 250.914,349.91 252.883,355.697C263.514,387.028 305.041,509.309 399.998,411.553C449.997,360.084 426.85,308.615 335.838,293.076C387.904,301.964 446.44,287.275 462.499,229.689C467.125,213.125 475,111.088 475,97.306C475,28.274 414.686,49.972 377.455,78.006Z" style="fill:url(#_Linear1);fill-rule:nonzero;"/>
    </g>
    <defs>
        <linearGradient id="_Linear1" x1="0" y1="0" x2="1" y2="0" gradientUnits="userSpaceOnUse" gradientTransform="matrix(2.43398e-14,397.498,-397.498,2.43398e-14,249.999,51.282)"><stop offset="0" style="stop-color:rgb(10,122,255);stop-opacity:1"/><stop offset="1" style="stop-color:rgb(89,185,255);stop-opacity:1"/></linearGradient>
    </defs>
</svg>
