<?xml version="1.0" encoding="UTF-8" standalone="no"?>
<!DOCTYPE svg PUBLIC "-//W3C//DTD SVG 1.1//EN" "http://www.w3.org/Graphics/SVG/1.1/DTD/svg11.dtd">
<svg width="100%" height="100%" viewBox="0 0 116 121" version="1.1" xmlns="http://www.w3.org/2000/svg" xmlns:xlink="http://www.w3.org/1999/xlink" xml:space="preserve" xmlns:serif="http://www.serif.com/" style="fill-rule:evenodd;clip-rule:evenodd;stroke-linejoin:round;stroke-miterlimit:2;">
    <g transform="matrix(1,0,0,1,-470.544,-256.951)">
        <path d="M586.254,268.689L586.254,365.267C586.254,371.746 580.994,377.006 574.515,377.006L482.283,377.006C475.804,377.006 470.544,371.746 470.544,365.267L470.544,268.689C470.544,262.211 475.804,256.951 482.283,256.951L574.515,256.951C580.994,256.951 586.254,262.211 586.254,268.689Z" style="fill:url(#_Linear1);"/>
        <g transform="matrix(6.99314,0,0,8.24325,-2046.84,-2265.82)">
            <path d="M366.038,313.27L362.546,308.852L366.87,308.852L368.188,310.498L369.448,308.852L373.743,308.852L370.362,313.246L373.96,317.793L369.63,317.793L368.212,316.018L366.847,317.793L362.546,317.793L366.038,313.27Z" style="fill:rgb(235,235,235);fill-rule:nonzero;"/>
        </g>
    </g>
    <defs>
        <linearGradient id="_Linear1" x1="0" y1="0" x2="1" y2="0" gradientUnits="userSpaceOnUse" gradientTransform="matrix(7.25147e-15,118.425,-118.425,7.25147e-15,515.09,255.864)"><stop offset="0" style="stop-color:rgb(110,0,25);stop-opacity:1"/><stop offset="1" style="stop-color:rgb(255,39,39);stop-opacity:1"/></linearGradient>
    </defs>
</svg>
