<?xml version="1.0" encoding="UTF-8" standalone="no"?>
<!DOCTYPE svg PUBLIC "-//W3C//DTD SVG 1.1//EN" "http://www.w3.org/Graphics/SVG/1.1/DTD/svg11.dtd">
<svg width="100%" height="100%" viewBox="0 0 1000 1000" version="1.1" xmlns="http://www.w3.org/2000/svg" xmlns:xlink="http://www.w3.org/1999/xlink" xml:space="preserve" xmlns:serif="http://www.serif.com/" style="fill-rule:evenodd;clip-rule:evenodd;stroke-linejoin:round;stroke-miterlimit:2;">
    <g id="watermark_1_">
    </g>
    <g>
        <g transform="matrix(1.87765,0,0,1.87765,-438.826,-438.826)">
            <path d="M713.006,250L286.886,250C266.541,250 250.007,266.14 250.007,286.051L250.007,713.92C250.007,733.831 266.541,749.999 286.886,749.999L713.006,749.999C733.392,749.999 749.993,733.831 749.993,713.92L749.993,286.051C749.993,266.14 733.392,250 713.006,250Z" style="fill:rgb(5,100,147);fill-rule:nonzero;"/>
        </g>
        <g transform="matrix(1.87765,0,0,1.87765,-438.826,-438.826)">
            <path d="M324.09,437.446L398.322,437.446L398.322,676.053L324.09,676.053L324.09,437.446ZM361.227,318.834C384.949,318.834 404.209,338.101 404.209,361.837C404.209,385.58 384.95,404.846 361.227,404.846C337.41,404.846 318.204,385.58 318.204,361.837C318.204,338.101 337.409,318.834 361.227,318.834" style="fill:white;fill-rule:nonzero;"/>
        </g>
        <g transform="matrix(1.87765,0,0,1.87765,-438.826,-438.826)">
            <path d="M444.844,437.446L515.93,437.446L515.93,470.065L516.947,470.065C526.835,451.307 551.032,431.525 587.111,431.525C662.197,431.525 676.074,480.931 676.074,545.193L676.074,676.053L601.923,676.053L601.923,560.018C601.923,532.349 601.448,496.751 563.39,496.751C524.802,496.751 518.915,526.909 518.915,558.037L518.915,676.052L444.846,676.052L444.846,437.446L444.844,437.446Z" style="fill:white;fill-rule:nonzero;"/>
        </g>
    </g>
</svg>
