<?xml version="1.0" encoding="UTF-8" standalone="no"?>
<!DOCTYPE svg PUBLIC "-//W3C//DTD SVG 1.1//EN" "http://www.w3.org/Graphics/SVG/1.1/DTD/svg11.dtd">
<svg width="100%" height="100%" viewBox="0 0 295 81" version="1.1" xmlns="http://www.w3.org/2000/svg" xmlns:xlink="http://www.w3.org/1999/xlink" xml:space="preserve" xmlns:serif="http://www.serif.com/" style="fill-rule:evenodd;clip-rule:evenodd;stroke-linejoin:round;stroke-miterlimit:2;">
    <g transform="matrix(1,0,0,1,-25.392,-31.7553)">
        <g transform="matrix(5.48982,0,0,5.48982,-405.709,-46.5965)">
            <g transform="matrix(12,0,0,12,94.3486,24.1803)">
                <path d="M0.318,-0.125L0.521,-0.711L0.624,-0.711L0.36,-0L0.277,-0L0.014,-0.711L0.116,-0.711L0.318,-0.125Z" style="fill:white;fill-rule:nonzero;"/>
            </g>
            <g transform="matrix(12,0,0,12,101.983,24.1803)">
                <rect x="0.089" y="-0.711" width="0.094" height="0.711" style="fill:white;fill-rule:nonzero;"/>
            </g>
            <g transform="matrix(12,0,0,12,105.352,24.1803)">
                <path d="M0.475,-0.186L0.177,-0.186L0.11,-0L0.014,-0L0.285,-0.711L0.367,-0.711L0.639,-0L0.543,-0L0.475,-0.186ZM0.206,-0.263L0.447,-0.263L0.326,-0.595L0.206,-0.263Z" style="fill:white;fill-rule:nonzero;"/>
            </g>
            <g transform="matrix(12,0,0,12,113.116,24.1803)">
                <path d="M0.607,-0.093C0.583,-0.059 0.55,-0.033 0.506,-0.016C0.463,0.001 0.413,0.01 0.356,0.01C0.298,0.01 0.247,-0.004 0.202,-0.031C0.157,-0.058 0.122,-0.097 0.097,-0.147C0.073,-0.197 0.06,-0.255 0.06,-0.321L0.06,-0.383C0.06,-0.49 0.084,-0.573 0.134,-0.632C0.184,-0.691 0.255,-0.721 0.345,-0.721C0.419,-0.721 0.479,-0.702 0.524,-0.664C0.57,-0.626 0.597,-0.572 0.607,-0.502L0.514,-0.502C0.496,-0.597 0.44,-0.644 0.346,-0.644C0.283,-0.644 0.235,-0.621 0.203,-0.577C0.17,-0.533 0.154,-0.469 0.154,-0.386L0.154,-0.328C0.154,-0.248 0.172,-0.184 0.208,-0.137C0.245,-0.09 0.294,-0.067 0.356,-0.067C0.392,-0.067 0.422,-0.071 0.449,-0.079C0.475,-0.086 0.497,-0.1 0.514,-0.118L0.514,-0.278L0.35,-0.278L0.35,-0.354L0.607,-0.354L0.607,-0.093Z" style="fill:white;fill-rule:nonzero;"/>
            </g>
            <g transform="matrix(12,0,0,12,121.29,24.1803)">
                <rect x="0.089" y="-0.711" width="0.094" height="0.711" style="fill:white;fill-rule:nonzero;"/>
            </g>
            <g transform="matrix(12,0,0,12,124.554,24.1803)">
                <path d="M0.629,-0.333C0.629,-0.263 0.618,-0.202 0.594,-0.15C0.571,-0.098 0.538,-0.059 0.495,-0.031C0.452,-0.004 0.402,0.01 0.344,0.01C0.288,0.01 0.239,-0.004 0.195,-0.031C0.152,-0.059 0.118,-0.098 0.094,-0.149C0.07,-0.2 0.058,-0.259 0.058,-0.326L0.058,-0.377C0.058,-0.446 0.069,-0.506 0.093,-0.559C0.117,-0.611 0.151,-0.651 0.194,-0.679C0.237,-0.707 0.287,-0.721 0.343,-0.721C0.4,-0.721 0.45,-0.707 0.494,-0.679C0.537,-0.652 0.571,-0.612 0.594,-0.56C0.618,-0.507 0.629,-0.447 0.629,-0.377L0.629,-0.333ZM0.536,-0.378C0.536,-0.463 0.519,-0.527 0.485,-0.572C0.451,-0.618 0.404,-0.64 0.343,-0.64C0.284,-0.64 0.237,-0.618 0.203,-0.572C0.169,-0.527 0.152,-0.465 0.151,-0.385L0.151,-0.333C0.151,-0.251 0.168,-0.187 0.202,-0.14C0.237,-0.093 0.284,-0.07 0.344,-0.07C0.405,-0.07 0.452,-0.092 0.485,-0.136C0.518,-0.18 0.535,-0.243 0.536,-0.326L0.536,-0.378Z" style="fill:white;fill-rule:nonzero;"/>
            </g>
        </g>
        <g transform="matrix(0.997249,0,0,0.997249,-0.633233,-0.61093)">
            <circle cx="66.273" cy="72.632" r="40.175" style="fill:white;"/>
        </g>
        <g transform="matrix(1.76343,0,0,1.65314,-94.414,-103.916)">
            <g transform="matrix(8,0,0,8,173.296,126.639)">
                <path d="M0.574,-0.634L0.345,-0.634L0.345,-0L0.252,-0L0.252,-0.634L0.024,-0.634L0.024,-0.711L0.574,-0.711L0.574,-0.634Z" style="fill:white;fill-rule:nonzero;"/>
            </g>
            <g transform="matrix(8,0,0,8,178.389,126.639)">
                <path d="M0.484,-0.329L0.176,-0.329L0.176,-0.077L0.534,-0.077L0.534,-0L0.083,-0L0.083,-0.711L0.529,-0.711L0.529,-0.634L0.176,-0.634L0.176,-0.405L0.484,-0.405L0.484,-0.329Z" style="fill:white;fill-rule:nonzero;"/>
            </g>
            <g transform="matrix(8,0,0,8,183.256,126.639)">
                <path d="M0.605,-0.226C0.597,-0.15 0.569,-0.092 0.522,-0.051C0.475,-0.011 0.413,0.01 0.336,0.01C0.252,0.01 0.185,-0.02 0.134,-0.081C0.083,-0.141 0.058,-0.221 0.058,-0.322L0.058,-0.391C0.058,-0.457 0.07,-0.515 0.093,-0.565C0.117,-0.615 0.151,-0.653 0.194,-0.68C0.237,-0.707 0.287,-0.721 0.344,-0.721C0.42,-0.721 0.48,-0.7 0.526,-0.657C0.571,-0.615 0.598,-0.557 0.605,-0.482L0.511,-0.482C0.503,-0.539 0.485,-0.58 0.458,-0.605C0.431,-0.631 0.393,-0.644 0.344,-0.644C0.284,-0.644 0.237,-0.621 0.203,-0.577C0.169,-0.533 0.152,-0.47 0.152,-0.388L0.152,-0.319C0.152,-0.242 0.168,-0.181 0.201,-0.135C0.233,-0.09 0.278,-0.067 0.336,-0.067C0.388,-0.067 0.428,-0.079 0.456,-0.102C0.484,-0.126 0.502,-0.167 0.511,-0.226L0.605,-0.226Z" style="fill:white;fill-rule:nonzero;"/>
            </g>
            <g transform="matrix(8,0,0,8,188.783,126.639)">
                <path d="M0.629,-0L0.535,-0L0.535,-0.329L0.176,-0.329L0.176,-0L0.083,-0L0.083,-0.711L0.176,-0.711L0.176,-0.405L0.535,-0.405L0.535,-0.711L0.629,-0.711L0.629,-0Z" style="fill:white;fill-rule:nonzero;"/>
            </g>
            <g transform="matrix(8,0,0,8,194.806,126.639)">
                <path d="M0.629,-0L0.535,-0L0.177,-0.548L0.177,-0L0.083,-0L0.083,-0.711L0.177,-0.711L0.536,-0.161L0.536,-0.711L0.629,-0.711L0.629,-0Z" style="fill:white;fill-rule:nonzero;"/>
            </g>
            <g transform="matrix(8,0,0,8,200.83,126.639)">
                <path d="M0.629,-0.333C0.629,-0.263 0.618,-0.202 0.594,-0.15C0.571,-0.098 0.538,-0.059 0.495,-0.031C0.452,-0.004 0.402,0.01 0.344,0.01C0.288,0.01 0.239,-0.004 0.195,-0.031C0.152,-0.059 0.118,-0.098 0.094,-0.149C0.07,-0.2 0.058,-0.259 0.058,-0.326L0.058,-0.377C0.058,-0.446 0.069,-0.506 0.093,-0.559C0.117,-0.611 0.151,-0.651 0.194,-0.679C0.237,-0.707 0.287,-0.721 0.343,-0.721C0.4,-0.721 0.45,-0.707 0.494,-0.679C0.537,-0.652 0.571,-0.612 0.594,-0.56C0.618,-0.507 0.629,-0.447 0.629,-0.377L0.629,-0.333ZM0.536,-0.378C0.536,-0.463 0.519,-0.527 0.485,-0.572C0.451,-0.618 0.404,-0.64 0.343,-0.64C0.284,-0.64 0.237,-0.618 0.203,-0.572C0.169,-0.527 0.152,-0.465 0.151,-0.385L0.151,-0.333C0.151,-0.251 0.168,-0.187 0.202,-0.14C0.237,-0.093 0.284,-0.07 0.344,-0.07C0.405,-0.07 0.452,-0.092 0.485,-0.136C0.518,-0.18 0.535,-0.243 0.536,-0.326L0.536,-0.378Z" style="fill:white;fill-rule:nonzero;"/>
            </g>
            <g transform="matrix(8,0,0,8,206.65,126.639)">
                <path d="M0.177,-0.077L0.514,-0.077L0.514,-0L0.083,-0L0.083,-0.711L0.177,-0.711L0.177,-0.077Z" style="fill:white;fill-rule:nonzero;"/>
            </g>
            <g transform="matrix(8,0,0,8,211.02,126.639)">
                <path d="M0.629,-0.333C0.629,-0.263 0.618,-0.202 0.594,-0.15C0.571,-0.098 0.538,-0.059 0.495,-0.031C0.452,-0.004 0.402,0.01 0.344,0.01C0.288,0.01 0.239,-0.004 0.195,-0.031C0.152,-0.059 0.118,-0.098 0.094,-0.149C0.07,-0.2 0.058,-0.259 0.058,-0.326L0.058,-0.377C0.058,-0.446 0.069,-0.506 0.093,-0.559C0.117,-0.611 0.151,-0.651 0.194,-0.679C0.237,-0.707 0.287,-0.721 0.343,-0.721C0.4,-0.721 0.45,-0.707 0.494,-0.679C0.537,-0.652 0.571,-0.612 0.594,-0.56C0.618,-0.507 0.629,-0.447 0.629,-0.377L0.629,-0.333ZM0.536,-0.378C0.536,-0.463 0.519,-0.527 0.485,-0.572C0.451,-0.618 0.404,-0.64 0.343,-0.64C0.284,-0.64 0.237,-0.618 0.203,-0.572C0.169,-0.527 0.152,-0.465 0.151,-0.385L0.151,-0.333C0.151,-0.251 0.168,-0.187 0.202,-0.14C0.237,-0.093 0.284,-0.07 0.344,-0.07C0.405,-0.07 0.452,-0.092 0.485,-0.136C0.518,-0.18 0.535,-0.243 0.536,-0.326L0.536,-0.378Z" style="fill:white;fill-rule:nonzero;"/>
            </g>
            <g transform="matrix(8,0,0,8,216.84,126.639)">
                <path d="M0.607,-0.093C0.583,-0.059 0.55,-0.033 0.506,-0.016C0.463,0.001 0.413,0.01 0.356,0.01C0.298,0.01 0.247,-0.004 0.202,-0.031C0.157,-0.058 0.122,-0.097 0.097,-0.147C0.073,-0.197 0.06,-0.255 0.06,-0.321L0.06,-0.383C0.06,-0.49 0.084,-0.573 0.134,-0.632C0.184,-0.691 0.255,-0.721 0.345,-0.721C0.419,-0.721 0.479,-0.702 0.524,-0.664C0.57,-0.626 0.597,-0.572 0.607,-0.502L0.514,-0.502C0.496,-0.597 0.44,-0.644 0.346,-0.644C0.283,-0.644 0.235,-0.621 0.203,-0.577C0.17,-0.533 0.154,-0.469 0.154,-0.386L0.154,-0.328C0.154,-0.248 0.172,-0.184 0.208,-0.137C0.245,-0.09 0.294,-0.067 0.356,-0.067C0.392,-0.067 0.422,-0.071 0.449,-0.079C0.475,-0.086 0.497,-0.1 0.514,-0.118L0.514,-0.278L0.35,-0.278L0.35,-0.354L0.607,-0.354L0.607,-0.093Z" style="fill:white;fill-rule:nonzero;"/>
            </g>
            <g transform="matrix(8,0,0,8,222.61,126.639)">
                <rect x="0.089" y="-0.711" width="0.094" height="0.711" style="fill:white;fill-rule:nonzero;"/>
            </g>
            <g transform="matrix(8,0,0,8,225.105,126.639)">
                <path d="M0.484,-0.329L0.176,-0.329L0.176,-0.077L0.534,-0.077L0.534,-0L0.083,-0L0.083,-0.711L0.529,-0.711L0.529,-0.634L0.176,-0.634L0.176,-0.405L0.484,-0.405L0.484,-0.329Z" style="fill:white;fill-rule:nonzero;"/>
            </g>
            <g transform="matrix(8,0,0,8,229.972,126.639)">
                <path d="M0.292,-0.317C0.212,-0.34 0.153,-0.368 0.116,-0.402C0.08,-0.436 0.062,-0.477 0.062,-0.527C0.062,-0.583 0.084,-0.629 0.128,-0.666C0.173,-0.702 0.232,-0.721 0.303,-0.721C0.352,-0.721 0.396,-0.711 0.434,-0.692C0.472,-0.674 0.502,-0.647 0.522,-0.614C0.544,-0.581 0.554,-0.545 0.554,-0.505L0.46,-0.505C0.46,-0.548 0.446,-0.582 0.419,-0.606C0.392,-0.631 0.353,-0.644 0.303,-0.644C0.257,-0.644 0.221,-0.633 0.195,-0.613C0.169,-0.593 0.156,-0.564 0.156,-0.528C0.156,-0.499 0.168,-0.475 0.193,-0.455C0.218,-0.435 0.259,-0.417 0.318,-0.4C0.378,-0.383 0.424,-0.365 0.457,-0.345C0.491,-0.325 0.515,-0.302 0.531,-0.275C0.548,-0.248 0.556,-0.217 0.556,-0.181C0.556,-0.123 0.533,-0.077 0.488,-0.042C0.443,-0.007 0.383,0.01 0.308,0.01C0.259,0.01 0.214,0 0.171,-0.018C0.129,-0.037 0.096,-0.063 0.073,-0.095C0.05,-0.128 0.039,-0.165 0.039,-0.206L0.133,-0.206C0.133,-0.163 0.149,-0.129 0.181,-0.104C0.213,-0.079 0.255,-0.067 0.308,-0.067C0.358,-0.067 0.396,-0.077 0.422,-0.097C0.448,-0.117 0.461,-0.145 0.461,-0.18C0.461,-0.215 0.449,-0.241 0.425,-0.26C0.4,-0.279 0.356,-0.298 0.292,-0.317Z" style="fill:white;fill-rule:nonzero;"/>
            </g>
        </g>
        <g transform="matrix(0.996564,0,0,0.996564,23.2787,1.37135)">
            <path d="M9.493,47.494C16.778,37.208 28.773,30.489 42.325,30.489C64.514,30.489 82.528,48.503 82.528,70.693C82.528,75.706 81.609,80.505 79.93,84.933L54.741,44.438L30.475,82.097L9.493,47.494ZM75.629,93.208C68.398,103.878 56.174,110.897 42.325,110.897C20.135,110.897 2.121,92.882 2.121,70.693C2.121,65.346 3.167,60.241 5.065,55.573L30.6,97.117L54.492,59.153C54.492,59.153 69.21,82.866 75.629,93.208Z" style="fill:rgb(58,163,220);"/>
        </g>
        <g transform="matrix(0.199313,0,0,0.199313,57.022,57.7311)">
            <circle cx="42.325" cy="70.693" r="40.204" style="fill:rgb(248,152,29);"/>
        </g>
        <g transform="matrix(0.0756012,0,0,0.0756012,62.258,66.4766)">
            <circle cx="42.325" cy="70.693" r="40.204" style="fill:white;"/>
        </g>
    </g>
</svg>
